<svg width="153" height="33" viewBox="0 0 153 33" fill="none" xmlns="http://www.w3.org/2000/svg">
<path d="M7.24605 0C6.62353 0 6.11888 0.504648 6.11888 1.12716V4.02558H1.12716C0.504648 4.02558 0 4.53023 0 5.15274V30.9165C0 31.539 0.504647 32.0436 1.12716 32.0436H26.8909C27.5134 32.0436 28.018 31.539 28.018 30.9165V5.15274C28.018 4.53023 27.5134 4.02558 26.8909 4.02558H21.8992V1.12716C21.8992 0.504648 21.3945 0 20.772 0H7.24605Z" fill="#00FFD1"/>
<path d="M11.8537 11.2038L20.8504 20.2005L16.2143 24.8366L13.8274 22.4497L11.0733 24.4694L4.83069 18.2268L11.8537 11.2038Z" fill="#434343"/>
<path d="M14.4241 13.8203L17.4077 12.03L23.2372 17.8596L16.2142 24.8826L7.21753 15.8859L11.8537 11.2498L14.4241 13.8203Z" fill="#434343"/>
<path d="M19.9669 7.40707L16.3501 15.6977L18.687 18.0346L8.05947 28.6622L11.6762 20.3715C11.6762 20.3715 10.2519 18.9472 9.33931 18.0346L19.9669 7.40707Z" fill="white"/>
<path d="M35.2953 16.3057C35.2953 15.3245 35.713 14.5024 36.5483 13.8394C37.3836 13.1765 38.5107 12.845 39.9295 12.845C41.3615 12.845 42.515 13.1698 43.3902 13.8195C44.2653 14.4693 44.7294 15.3576 44.7824 16.4847H41.3018C41.262 16.1002 41.1294 15.8416 40.904 15.709C40.6786 15.5632 40.3405 15.4902 39.8897 15.4902C39.0013 15.4902 38.5571 15.762 38.5571 16.3057C38.5571 16.7963 39.1007 17.1344 40.188 17.32C41.2885 17.5057 42.2896 17.7907 43.1913 18.1753C43.6554 18.3609 44.0399 18.6725 44.3448 19.1101C44.6631 19.5344 44.8222 20.0581 44.8222 20.6813C44.8222 21.7155 44.378 22.5641 43.4896 23.2271C42.6012 23.8768 41.4808 24.2017 40.1283 24.2017C38.7759 24.2017 37.6488 23.8967 36.7472 23.2868C35.8455 22.6636 35.3549 21.7487 35.2754 20.5421H38.756C38.8488 21.2183 39.3261 21.5564 40.188 21.5564C40.5858 21.5564 40.9106 21.4636 41.1626 21.278C41.4278 21.0923 41.5604 20.8537 41.5604 20.562C41.5604 20.2703 41.3416 20.0382 40.904 19.8658C40.4797 19.6935 39.9626 19.5476 39.3527 19.4283C38.7427 19.3089 38.1262 19.1631 37.503 18.9907C36.893 18.8051 36.3693 18.4935 35.9317 18.0559C35.5074 17.6051 35.2953 17.0217 35.2953 16.3057Z" fill="white"/>
<path d="M54.6213 12.9643H58.0224V24.0625H54.6213V22.4315C53.9186 23.5984 52.7981 24.1818 51.2601 24.1818C49.9871 24.1818 48.9529 23.7575 48.1573 22.9089C47.375 22.0603 46.9839 20.9067 46.9839 19.4482V12.9643H50.365V18.9907C50.365 19.7067 50.5507 20.2636 50.9219 20.6614C51.3065 21.0459 51.8302 21.2382 52.4932 21.2382C53.1561 21.2382 53.6733 21.0459 54.0445 20.6614C54.4291 20.2636 54.6213 19.7067 54.6213 18.9907V12.9643Z" fill="white"/>
<path d="M68.2812 20.562C68.7718 20.0846 69.0171 19.4084 69.0171 18.5333C69.0171 17.6581 68.7718 16.9819 68.2812 16.5046C67.7906 16.0272 67.2271 15.7886 66.5907 15.7886C65.9542 15.7886 65.3907 16.0272 64.9001 16.5046C64.4095 16.9687 64.1642 17.6383 64.1642 18.5134C64.1642 19.3885 64.4095 20.0647 64.9001 20.5421C65.3907 21.0194 65.9542 21.2581 66.5907 21.2581C67.2271 21.2581 67.7906 21.026 68.2812 20.562ZM64.1642 14.4162C64.92 13.3687 66.0006 12.845 67.4061 12.845C68.8249 12.845 70.0248 13.382 71.006 14.456C71.9872 15.5167 72.4778 16.8758 72.4778 18.5333C72.4778 20.1907 71.9872 21.5498 71.006 22.6105C70.0248 23.6713 68.8381 24.2017 67.4459 24.2017C66.0536 24.2017 64.9597 23.6183 64.1642 22.4514V29.353H60.7631V12.9643H64.1642V14.4162Z" fill="white"/>
<path d="M79.6108 24.2017C77.9931 24.2017 76.6672 23.6846 75.633 22.6503C74.5987 21.6028 74.0816 20.2172 74.0816 18.4935C74.0816 16.7698 74.5921 15.3974 75.6131 14.3764C76.6473 13.3555 77.9799 12.845 79.6108 12.845C81.2417 12.845 82.5942 13.3488 83.6682 14.3565C84.7422 15.3643 85.2792 16.7631 85.2792 18.5532C85.2792 18.9377 85.2527 19.2957 85.1996 19.6272H77.5622C77.6285 20.1178 77.8473 20.5222 78.2186 20.8404C78.5898 21.1454 78.9876 21.2979 79.4119 21.2979C79.8495 21.2979 80.1743 21.2581 80.3865 21.1785C80.5986 21.0857 80.7511 20.9995 80.8439 20.92C80.95 20.8272 81.0826 20.6813 81.2417 20.4824H84.9212C84.603 21.5962 83.9665 22.4978 83.0118 23.1873C82.0572 23.8636 80.9235 24.2017 79.6108 24.2017ZM81.7389 17.499C81.6859 16.9819 81.4605 16.5642 81.0627 16.246C80.6649 15.9145 80.1942 15.7488 79.6506 15.7488C79.1069 15.7488 78.6495 15.9145 78.2782 16.246C77.907 16.5642 77.6749 16.9819 77.5821 17.499H81.7389Z" fill="white"/>
<path d="M90.8648 12.9643V15.0328C91.6604 13.5742 92.7211 12.845 94.047 12.845V16.3057H93.2117C92.4294 16.3057 91.8394 16.4913 91.4416 16.8626C91.057 17.2338 90.8648 17.8836 90.8648 18.8117V24.0625H87.4637V12.9643H90.8648Z" fill="white"/>
<path d="M103.904 20.562C104.395 20.0846 104.64 19.4084 104.64 18.5333C104.64 17.6581 104.395 16.9819 103.904 16.5046C103.414 16.0272 102.85 15.7886 102.214 15.7886C101.577 15.7886 101.014 16.0272 100.523 16.5046C100.033 16.9687 99.7873 17.6383 99.7873 18.5134C99.7873 19.3885 100.033 20.0647 100.523 20.5421C101.014 21.0194 101.577 21.2581 102.214 21.2581C102.85 21.2581 103.414 21.026 103.904 20.562ZM99.7873 14.4162C100.543 13.3687 101.624 12.845 103.029 12.845C104.448 12.845 105.648 13.382 106.629 14.456C107.61 15.5167 108.101 16.8758 108.101 18.5333C108.101 20.1907 107.61 21.5498 106.629 22.6105C105.648 23.6713 104.461 24.2017 103.069 24.2017C101.677 24.2017 100.583 23.6183 99.7873 22.4514V24.0625H96.3863V9.34448H99.7873V14.4162Z" fill="white"/>
<path d="M110.274 24.0625V9.34448H113.675V24.0625H110.274Z" fill="white"/>
<path d="M123.327 20.5819C123.778 20.1045 124.003 19.415 124.003 18.5134C124.003 17.6117 123.771 16.9289 123.307 16.4648C122.843 15.9875 122.293 15.7488 121.656 15.7488C121.02 15.7488 120.469 15.9875 120.005 16.4648C119.554 16.9289 119.329 17.6117 119.329 18.5134C119.329 19.415 119.561 20.1045 120.025 20.5819C120.503 21.0592 121.059 21.2979 121.696 21.2979C122.332 21.2979 122.876 21.0592 123.327 20.5819ZM117.539 22.6304C116.425 21.5829 115.868 20.204 115.868 18.4935C115.868 16.783 116.425 15.4173 117.539 14.3963C118.653 13.3621 120.032 12.845 121.676 12.845C123.32 12.845 124.692 13.3621 125.793 14.3963C126.907 15.4173 127.464 16.783 127.464 18.4935C127.464 20.204 126.913 21.5829 125.813 22.6304C124.712 23.6779 123.34 24.2017 121.696 24.2017C120.052 24.2017 118.666 23.6779 117.539 22.6304Z" fill="white"/>
<path d="M130.374 22.6503C129.353 21.6161 128.842 20.2371 128.842 18.5134C128.842 16.7897 129.353 15.4173 130.374 14.3963C131.408 13.3621 132.741 12.845 134.372 12.845C135.724 12.845 136.871 13.1831 137.812 13.8593C138.754 14.5223 139.377 15.477 139.682 16.7234H136.003C135.684 16.0604 135.161 15.7289 134.431 15.7289C133.715 15.7289 133.178 15.9875 132.82 16.5046C132.476 17.0084 132.303 17.678 132.303 18.5134C132.303 19.3487 132.476 20.025 132.82 20.5421C133.178 21.0459 133.695 21.2979 134.372 21.2979C134.796 21.2979 135.127 21.2249 135.366 21.0791C135.605 20.9332 135.817 20.6747 136.003 20.3034H139.682C139.377 21.4968 138.747 22.4448 137.793 23.1476C136.838 23.8503 135.698 24.2017 134.372 24.2017C132.741 24.2017 131.408 23.6846 130.374 22.6503Z" fill="white"/>
<path d="M144.985 24.0625H141.584V9.34448H144.985V13.4715V17.5985L148.425 12.9643H153L148.246 18.6327L153 24.0625H148.485L144.985 19.6272V24.0625Z" fill="white"/>
<path d="M144.985 24.0625H141.584V9.34448H144.985V13.4715V17.5985L148.425 12.9643H153L148.246 18.6327L153 24.0625H148.485L144.985 19.6272V24.0625Z" fill="white"/>
</svg>
